<svg xmlns="http://www.w3.org/2000/svg" viewBox="0 0 520 180" width="520" height="180">
  <title>G26x — Tech Modern (Light)</title>
  <defs>
    <linearGradient id="tx-l" x1="0" y1="0" x2="1" y2="1">
      <stop offset="0" stop-color="#3944BC"></stop>
      <stop offset="1" stop-color="#1A2244"></stop>
    </linearGradient>
  </defs>
  
  <g stroke="#3944BC" stroke-width="2" fill="none">
    <path d="M 30 50 L 20 50 L 20 130 L 30 130"></path>
    <path d="M 490 50 L 500 50 L 500 130 L 490 130"></path>
  </g>
  
  <text x="60" y="118" font-family="&#39;JetBrains Mono&#39;, monospace" font-size="72" font-weight="500" fill="#1A2244" letter-spacing="-0.02em">G26</text>
  
  <g transform="translate(340, 90)">
    <circle cx="0" cy="0" r="32" fill="none" stroke="#1A2244" stroke-width="1" opacity="0.4"></circle>
    <circle cx="0" cy="0" r="22" fill="none" stroke="#3944BC" stroke-width="1.5"></circle>
    <g stroke="url(#tx-l)" stroke-width="4" stroke-linecap="square">
      <line x1="-14" y1="-14" x2="14" y2="14"></line>
      <line x1="14" y1="-14" x2="-14" y2="14"></line>
    </g>
    <g stroke="#3944BC" stroke-width="1.5">
      <line x1="0" y1="-40" x2="0" y2="-36"></line>
      <line x1="0" y1="36" x2="0" y2="40"></line>
      <line x1="-40" y1="0" x2="-36" y2="0"></line>
      <line x1="36" y1="0" x2="40" y2="0"></line>
    </g>
  </g>
  
  <g transform="translate(410, 90)">
    <circle cx="0" cy="0" r="3" fill="#3944BC"></circle>
    <text x="10" y="-4" font-family="&#39;JetBrains Mono&#39;, monospace" font-size="8" font-weight="700" letter-spacing="0.3em" fill="#3944BC">HOLDING</text>
    <text x="10" y="10" font-family="&#39;JetBrains Mono&#39;, monospace" font-size="8" font-weight="700" letter-spacing="0.3em" fill="#1A2244">EST·2026</text>
  </g>
  
  <line x1="20" y1="150" x2="500" y2="150" stroke="#1A2244" stroke-width="0.5" stroke-dasharray="2 3" opacity="0.5"></line>
  <text x="20" y="168" font-family="&#39;JetBrains Mono&#39;, monospace" font-size="8" font-weight="700" letter-spacing="0.4em" fill="#3944BC">G/GROTHOUSE · 2/FOUNDATION · 6/FAMILY · X/XPERIENCE</text>
</svg>